<svg xmlns="http://www.w3.org/2000/svg" fill="none" viewBox="-0.5 -0.5 48 48" id="Yao-Ming-Face-Hand-Drawn--Streamline-Memes.svg" height="48" width="48"><desc>Yao Ming Face Hand Drawn Streamline Element: https://streamlinehq.com</desc><path fill="#000000" fill-rule="evenodd" d="M22.000888 32.519864C22.615225 32.673695 22.769008999999997 32.058888 22.769008999999997 32.366503C22.000888 33.59513 21.386128 34.363251 21.232814 34.363251C17.546039999999998 35.131325 16.624605 35.28515599999999 15.549339 36.053277C16.31746 36.206591 16.931749999999997 36.206591 17.853232 36.053277C17.546039999999998 36.053277 15.241724 36.360422 14.627434 36.053277C13.552167999999998 35.745615 13.244553 34.20942 12.169756999999999 34.20942C12.323118 33.902744999999996 12.323118 33.287985 12.784047 32.98083999999999C13.091239 32.827479 13.552167999999998 32.98083999999999 14.013143999999999 32.98083999999999C13.245023 32.98083999999999 13.245023 32.673648 13.552167999999998 33.441768999999994C13.705998999999998 33.748914 13.552167999999998 34.20989 13.705998999999998 34.363721C14.166927999999999 34.82465 14.627904 34.363721 14.781265 34.363721C15.08841 34.363721 15.242194 34.517035 15.549339 34.363721C15.702699999999998 34.363721 15.856484 34.056059 16.010315 34.056059H16.31746C17.085111 34.20989 17.238895 33.902744999999996 17.546039999999998 33.59513H17.853232C18.775136999999997 33.59513 18.621305999999997 33.134153999999995 18.928451 32.98083999999999C19.235595999999997 32.827479 19.696572 33.287985 20.157548 32.827479L20.311332 32.673648C20.618477 32.98083999999999 21.078982999999997 33.5956 22.000888 32.519864ZM21.232814 34.363721C20.310861999999997 35.28515599999999 19.388957 35.899446 18.160376999999997 36.053277C19.082282 35.899446 20.618523999999997 34.978011 21.232814 34.363251ZM14.934579 32.827479C16.009845 32.366503 16.624605 31.598428999999996 19.235643 31.905574C20.003717 32.059357999999996 20.925669 32.212719 21.693742999999998 32.366503C20.925669 32.212719 18.928498 31.598428999999996 16.931749999999997 31.905574C16.163676 32.059357999999996 15.548869 32.519864 14.934579 32.827479Z" clip-rule="evenodd" stroke-width="1"></path><path fill="#000000" fill-rule="evenodd" d="M6.485859 19.463404999999998C6.63969 20.231056 6.793474 20.845816 6.63969 21.460105999999996C6.485859 22.228227 6.025353 22.996348 6.178713999999999 23.917783C6.178713999999999 24.839688 7.100618999999999 24.993048999999996 7.100618999999999 25.607808999999996C6.793474 29.601210999999996 6.793474 29.601210999999996 8.636861 33.134624C10.019271999999999 35.899446 9.251150999999998 35.745615 13.552167999999998 39.586172999999995C13.705528999999999 39.739534 13.859312999999998 39.586172999999995 13.859312999999998 39.586172999999995C14.166458 39.279028 13.398384 39.12519699999999 11.708828 37.281856999999995S10.019271999999999 34.517035 9.251150999999998 32.980793C8.48303 31.291237 7.868269999999999 30.369332 7.868269999999999 28.679776C7.714909 27.143580999999998 8.022054 26.068315 8.022054 25.607808999999996C8.022054 24.839688 7.714909 24.839688 7.253979999999999 24.224928C6.63969 23.456806999999998 7.714909 22.228227 7.407764 20.538201C7.407764 20.077225 7.253979999999999 19.616766 7.100618999999999 19.309574C6.793474 19.15579 6.332545 19.15579 6.485859 19.462934999999998Z" clip-rule="evenodd" stroke-width="1"></path><path fill="#000000" fill-rule="evenodd" d="M12.169756999999999 36.667567C13.705998999999998 40.200463 13.091709 40.96858399999999 14.013143999999999 42.197681C15.242194 43.733875999999995 19.850403 44.501526999999996 23.076154 41.736705C23.383298999999997 41.582874 23.076154 41.122415 22.769008999999997 41.429559999999995C21.078982999999997 42.81197099999999 19.236113 42.965754999999994 17.085111 42.658139999999996C13.245023 42.197210999999996 14.934579 40.96858399999999 12.476902 36.35995199999999C12.476902 36.206591 12.015972999999999 36.35995199999999 12.169756999999999 36.667567Z" clip-rule="evenodd" stroke-width="1"></path><path fill="#000000" fill-rule="evenodd" d="M26.455265999999998 42.812441C29.220557999999997 41.429559999999995 30.449655 39.43285899999999 32.292525 36.975182C33.060646 36.053277 33.828767 35.285626 34.136382 33.902744999999996C34.443526999999996 31.598899 33.368261000000004 30.676947 34.136382 28.065485999999996C34.904033 28.065485999999996 35.672107 27.758340999999998 36.286444 27.297835C38.130254 25.761639999999996 38.130254 23.918252999999996 38.591229999999996 21.767721C38.897904999999994 20.231526 39.20505 18.695284 38.283615 17.313390000000002C37.208349 15.623363999999999 34.904033 15.623363999999999 33.521621999999994 17.005728C32.907332000000004 17.620065 32.599717 18.388609 32.446356 19.310090999999996C32.292525 19.617236 32.753501 19.77102 32.907332000000004 19.463404999999998C33.060646 18.695284 33.368261000000004 17.92721 33.982597999999996 17.466704C35.057817 16.391437999999997 36.901204 16.391437999999997 37.822638999999995 17.773849C38.59076 19.002946 38.283615 20.385309999999997 37.97647 21.767250999999998C37.515494 23.918252999999996 37.514084 24.917802 35.977889 26.300683C34.748791999999995 27.375902 33.707412999999995 26.683075 33.553582 27.297835C32.478363 30.830308 34.234705999999996 32.697665 33.005609 34.84815C32.852295 35.001511 30.065853 39.242321 29.143900999999996 40.163802999999994C28.376297 40.931877 27.377218 41.539587 26.455782999999997 42.153923999999996C26.223415 42.309118 26.148168 42.965754999999994 26.455782999999997 42.812441Z" clip-rule="evenodd" stroke-width="1"></path><path fill="#000000" fill-rule="evenodd" d="M15.548869 42.965754999999994C16.009845 44.041021 15.856530999999999 44.501997 17.392726 46.191553C17.546086999999996 46.498698 18.007016 46.191553 17.853232 45.884408C17.085111 44.194852 17.238895 44.348166 16.009845 42.65861C15.856013999999998 42.504826 15.395555 42.65861 15.548869 42.965754999999994Z" clip-rule="evenodd" stroke-width="1"></path><path fill="#000000" fill-rule="evenodd" d="M12.169756999999999 46.499168C14.320288999999999 46.499168 15.395555 45.270118 16.009845 43.11958599999999C16.163676 42.812441 15.702699999999998 42.65861 15.548869 42.966225C14.781265 44.348636 13.552167999999998 45.731047 12.015972999999999 46.038191999999995C11.708828 46.192023 11.862611999999999 46.652528999999994 12.169756999999999 46.499168Z" clip-rule="evenodd" stroke-width="1"></path><path fill="#000000" fill-rule="evenodd" d="M35.979251999999995 27.074444C34.596888 31.375460999999998 34.289696 34.670866 35.979251999999995 39.739534C36.901204 42.504826 39.973171 44.348166 42.738462999999996 46.191553H43.045607999999994C43.506536999999994 45.576793 37.822638999999995 43.119116 36.594059 39.586172999999995C35.364962 35.438469999999995 35.211178 31.2221 36.594059 27.074444C36.901204 26.767252 36.133083 26.767252 35.979251999999995 27.074444Z" clip-rule="evenodd" stroke-width="1"></path><path fill="#000000" fill-rule="evenodd" d="M10.480201 22.074913C12.169756999999999 23.150132 12.323118 22.842986999999997 12.169756999999999 23.918252999999996C12.015972999999999 27.604979999999998 10.326417 28.680245999999997 11.555466999999998 29.448367C11.862611999999999 29.601727999999998 12.016442999999999 29.294535999999997 11.862611999999999 29.140752C11.248322 28.679776 12.169756999999999 28.065485999999996 12.476902 26.529761C13.552167999999998 22.689203 12.784047 22.689203 10.480201 21.767767999999997C10.326417 21.460623 10.172585999999999 21.921082 10.480201 22.074913Z" clip-rule="evenodd" stroke-width="1"></path><path fill="#000000" fill-rule="evenodd" d="M14.166458 30.216488000000002C13.398853999999998 30.523632999999997 13.398853999999998 30.062656999999998 12.784093999999998 30.216488000000002C12.630733 30.216488000000002 12.169756999999999 30.370271999999996 11.708828 30.216488000000002C11.094538 29.909342999999996 11.094538 29.602198 10.786876 29.755512C10.480201 30.062656999999998 11.094538 30.523632999999997 11.401683 30.677417000000002C12.015972999999999 30.984561999999997 12.323588 30.984561999999997 12.937878 30.830777999999995C13.552167999999998 30.984561999999997 13.705998999999998 31.291753999999997 15.08841 30.677417000000002C15.856530999999999 30.370271999999996 15.549385999999998 29.909342999999996 15.08841 29.755512C16.010315 29.448367 17.392726 30.216488000000002 18.314161 28.833607C19.236113 27.451666 17.546086999999996 25.915423999999998 16.31746 26.683545C16.009845 26.836906 15.395555 27.451666 15.702699999999998 27.605449999999998C16.010315 27.758811 16.010315 27.451666 16.470820999999997 27.144520999999997C17.238895 26.683545 18.314631 27.605449999999998 17.699870999999998 28.373101C16.931749999999997 29.448367 16.009845 28.526932 14.781265 28.987391C14.166974999999999 29.295005999999997 13.859312999999998 29.755512 14.166974999999999 30.216488000000002ZM14.627434 29.909342999999996C14.781265 29.909342999999996 14.781265 29.909342999999996 14.627434 29.909342999999996C14.781265 29.755512 14.627434 29.755512 14.627434 29.909342999999996ZM14.934579 29.755512C14.934579 29.909342999999996 14.934579 29.909342999999996 14.934579 29.755512ZM14.934579 29.755512C14.934579 29.602198 14.934579 29.602198 14.934579 29.755512Z" clip-rule="evenodd" stroke-width="1"></path><path fill="#000000" fill-rule="evenodd" d="M22.615225 32.059357999999996C22.308079999999997 32.366503 22.000888 32.213189 21.693273 32.059357999999996C16.009845 30.676476999999995 16.009845 32.059357999999996 14.166458 32.520334C13.859312999999998 32.520334 13.398384 32.366503 12.937408 32.366503C12.015972999999999 32.520334 11.862611999999999 33.441768999999994 11.708828 33.902744999999996C11.554997 34.20989 11.862611999999999 34.517035 12.169756999999999 34.517035C12.937878 34.517035 13.398384 36.053277 14.627434 36.360892C15.549339 36.667567 18.160376999999997 36.360892 19.081812 36.053277C20.925669 35.438939999999995 22.000888 33.902744999999996 23.076154 32.213189C23.229515 32.059357999999996 22.769008999999997 31.905574 22.615225 32.059357999999996ZM22.154248999999997 32.673695C21.232343999999998 32.673695 19.696572 32.059357999999996 17.699870999999998 32.212719C15.548869 32.366503 15.08841 33.5956 13.859312999999998 33.441768999999994C12.937408 33.441768999999994 12.784093999999998 32.980793 12.630263 33.902744999999996C14.781265 34.670866 12.630263 36.207060999999996 18.006545999999997 35.592301C20.003717 35.438939999999995 21.078982999999997 34.363721 22.154248999999997 32.673695Z" clip-rule="evenodd" stroke-width="1"></path><path fill="#000000" fill-rule="evenodd" d="M14.780795 38.050447999999996C16.624605 39.279498000000004 20.618054 38.357593 20.310861999999997 37.589471999999994C20.157548 37.282326999999995 20.003717 37.589471999999994 18.774667 37.743303C18.313691 37.743303 15.702699999999998 37.89708699999999 15.08841 37.589471999999994C14.780795 37.589471999999994 14.47365 37.896617 14.780795 38.050447999999996Z" clip-rule="evenodd" stroke-width="1"></path><path fill="#000000" fill-rule="evenodd" d="M18.928498 26.682605C20.003717 27.297365 22.154248999999997 29.601681 22.461394 30.062186999999998C23.076154 30.984091999999997 22.92237 31.291284 23.383298999999997 31.291284C24.15142 31.137452999999997 22.308079999999997 28.218847 20.618523999999997 26.99022C18.774667 25.76117 18.621305999999997 26.529244 18.928498 26.682605Z" clip-rule="evenodd" stroke-width="1"></path><path fill="#000000" fill-rule="evenodd" d="M24.304781 29.140752C25.687662 30.984561999999997 24.919071 31.598899 23.690490999999998 36.207060999999996C23.383298999999997 37.282326999999995 23.229515 38.664738 22.30761 39.279028C22.000888 39.43285899999999 22.30761 39.893787999999994 22.615225 39.740004C23.690444 39.125714 23.997635999999996 37.589471999999994 24.458564999999997 36.514206C25.840976 32.213189 26.455265999999998 30.984138999999995 24.76571 28.987391C24.458564999999997 28.679776 23.997635999999996 28.987391 24.304781 29.140752Z" clip-rule="evenodd" stroke-width="1"></path><path fill="#000000" fill-rule="evenodd" d="M10.019271999999999 30.830777999999995C8.48303 32.827949 9.558296 33.903214999999996 11.247852 35.592771C11.401683 35.899916 11.862611999999999 35.592771 11.554997 35.285626C10.326417 33.59607 9.712127 32.827949 10.479731 30.984561999999997C10.479731 30.677417000000002 10.172585999999999 30.523632999999997 10.018801999999999 30.830777999999995Z" clip-rule="evenodd" stroke-width="1"></path><path fill="#000000" fill-rule="evenodd" d="M14.012673999999999 21.306791999999998C13.705998999999998 22.535372 14.012673999999999 23.303492999999996 15.08841 23.918252999999996C15.395555 24.071614 15.549385999999998 23.764469 15.395555 23.610637999999998C14.934579 23.149662 14.627434 21.767250999999998 14.47365 21.306791999999998C14.47365 20.999647 14.012673999999999 20.999647 14.012673999999999 21.306791999999998Z" clip-rule="evenodd" stroke-width="1"></path><path fill="#000000" fill-rule="evenodd" d="M16.624605 22.535372C17.392256 21.613467 17.853232 21.613467 19.082282 21.767298C21.386128 21.921082 21.386128 21.921082 21.539959 21.613936999999996C21.539959 21.306321999999998 21.078982999999997 21.306321999999998 20.310861999999997 21.152961C19.082282 20.845816 17.699870999999998 20.538671 16.778436 21.613936999999996C15.702699999999998 22.689203 16.470820999999997 22.689203 16.624135 22.535842Z" clip-rule="evenodd" stroke-width="1"></path><path fill="#000000" fill-rule="evenodd" d="M22.615225 21.460576C23.690444 21.307261999999998 24.458564999999997 20.846286 24.919071 19.463874999999998C25.072854999999997 19.15626 24.611926 19.002946 24.458094999999997 19.310090999999996C23.997635999999996 19.924380999999997 22.768538999999997 20.846286 22.461394 20.999647C22.154248999999997 21.153430999999998 22.308079999999997 21.614407 22.615225 21.460576Z" clip-rule="evenodd" stroke-width="1"></path><path fill="#000000" fill-rule="evenodd" d="M23.383298999999997 22.228227C23.690490999999998 22.228227 23.997635999999996 22.381587999999997 24.305251 22.535372C24.76571 22.689203 25.380047 22.842517 25.687191999999996 22.842517C25.994807 22.996348 26.148121 22.535372 25.840976 22.381587999999997C24.76571 21.459636 24.15142 21.459636 23.229515 21.613467C23.076154 21.767298 23.076154 22.228227 23.383346 22.228227Z" clip-rule="evenodd" stroke-width="1"></path><path fill="#000000" fill-rule="evenodd" d="M8.175415 24.993989C9.558296 23.764939 9.711656999999999 24.072083999999997 11.708828 24.225868C12.015972999999999 24.225868 12.015972999999999 23.764939 11.862142 23.764939C10.940237 23.457794 10.018801999999999 22.996817999999998 8.943536 23.611108C8.48256 23.918723 8.329246 24.225868 7.868269999999999 24.840158C7.561124999999999 24.993989 7.868269999999999 25.301133999999998 8.175885 24.993989Z" clip-rule="evenodd" stroke-width="1"></path><path fill="#000000" fill-rule="evenodd" d="M11.862611999999999 16.237184C10.787346 18.387669 10.787346 19.616766 12.784564 20.999177C13.091239 21.152961 13.245023 20.845346 13.091239 20.692031999999998C12.015972999999999 19.616766 11.862611999999999 18.848644999999998 12.015972999999999 17.773379C12.169756999999999 16.544328999999998 12.476949 16.390497999999997 12.169756999999999 16.237184C12.015972999999999 15.930039 11.862611999999999 16.083823 11.862611999999999 16.237184Z" clip-rule="evenodd" stroke-width="1"></path><path fill="#000000" fill-rule="evenodd" d="M8.944006 15.776677999999999C11.094491 13.779976999999999 11.247852 13.933290999999999 13.705998999999998 14.087121999999999C14.781265 14.087121999999999 15.856484 13.933807999999999 16.931749999999997 13.933807999999999C17.238895 13.933807999999999 17.238895 13.472832 16.931749999999997 13.472832C10.787346 13.165687 11.094491 12.550927 8.48303 15.469532999999998C8.48303 15.623363999999999 8.790175 15.930508999999999 8.944006 15.776677999999999Z" clip-rule="evenodd" stroke-width="1"></path><path fill="#000000" fill-rule="evenodd" d="M23.326852 18.810057999999998C21.592176 20.173199 18.618015999999997 19.677912999999997 16.759119 19.057983C15.768077 18.686354 14.157058 17.943189999999998 13.413424 19.057983C12.546085999999999 15.216485 17.998556 17.819015999999998 20.600617 18.190598C21.220124 18.190598 22.95527 17.819015999999998 23.326852 18.810057999999998Z" clip-rule="evenodd" stroke-width="1"></path><path fill="#000000" fill-rule="evenodd" d="M23.326852 18.686354C22.95527 17.571608 21.592176 18.314771999999998 19.113819 17.571608C16.634945000000002 16.827503999999998 13.041371999999999 15.464363 12.793963999999999 18.314771999999998C12.669789999999999 19.801617 13.413424 19.677912999999997 13.661302 19.305861C14.157058 18.438476 15.643903 19.18211 16.511241 19.430034999999997C21.592176 21.041006999999997 24.194236999999998 18.934232 23.326852 18.686823999999998ZM22.95527 18.810527999999998C22.707392 18.190598 21.096373 18.438945999999998 20.476442999999996 18.438945999999998C18.122259999999997 18.190598 14.032884 16.207997 13.785006 18.190598C15.396025 17.447433999999998 19.857452999999996 20.793128999999997 22.95527 18.810527999999998Z" clip-rule="evenodd" stroke-width="1"></path><path fill="#000000" fill-rule="evenodd" d="M10.191386 18.562179999999998C8.580414 18.314301999999998 7.465151 20.297372999999997 6.7215169999999995 21.53634C6.349934999999999 22.15627 6.102056999999999 23.147312 6.8456909999999995 23.643114999999998C6.8456909999999995 23.643114999999998 6.8456909999999995 23.518940999999998 7.217273 23.023608C8.580414 21.164758 9.447752 21.164758 10.191433 20.049494999999997C10.439311 19.677912999999997 10.563014999999998 19.182156999999997 10.315136999999998 18.810057999999998L10.191433 18.562179999999998Z" clip-rule="evenodd" stroke-width="1"></path><path fill="#000000" fill-rule="evenodd" d="M7.217273 23.643114999999998C8.580414 21.412636 10.687189 20.668955 10.687189 19.306331C10.687189 18.934701999999998 10.563014999999998 18.686354 10.439311 18.562649999999998C10.439311 18.066893999999998 8.952466 18.314771999999998 8.208832 18.934232C7.465621 19.553739 5.730004999999999 21.53634 5.978353 22.899434C5.978353 23.767288999999998 6.969395 24.510453 7.217273 23.643114999999998ZM10.067682 18.686354C8.704588 18.686354 7.713028999999999 20.421077 7.093569 21.660514C6.8456909999999995 22.032096 6.7219869999999995 22.403678 6.8456909999999995 22.77573C8.084658 20.793128999999997 10.067682 20.296902999999997 10.191386 19.182156999999997C10.191386 18.934232 10.067682 18.934232 10.067682 18.686354Z" clip-rule="evenodd" stroke-width="1"></path><path fill="#000000" fill-rule="evenodd" d="M37.205999 15.092310999999999C37.205999 14.968606999999999 37.453877 14.597025 37.453877 14.472803999999998C37.453877 14.3491 36.833946999999995 14.3491 36.710243 13.358057999999998C36.710243 12.738128 37.329702999999995 12.242325 37.329702999999995 11.746569C37.329702999999995 11.498690999999999 36.958121 11.622865000000001 36.710243 11.498690999999999C36.33861399999999 11.251282999999999 36.09073599999999 10.755526999999999 35.967031999999996 10.383944999999999C35.84285799999999 9.887672 35.967031999999996 9.392385999999998 36.09073599999999 9.020334C36.09073599999999 8.896629999999998 36.214487 8.525048 36.214487 8.400873999999998C36.09073599999999 8.152996 34.727641999999996 8.400873999999998 34.35558999999999 5.550418C34.35558999999999 5.30301 34.35558999999999 4.8072539999999995 34.231885999999996 4.683549999999999C34.107665 4.559375999999999 33.48867499999999 4.559375999999999 33.240327 4.559375999999999C32.125581 4.187793999999999 31.134021999999998 3.3199389999999998 30.638265999999998 2.452601C30.514091999999994 2.328897 30.390387999999998 1.833141 30.266683999999998 1.709437L29.646707 2.081019C28.035735 2.700479 26.424715999999997 0.8415819999999999 26.053134 0.8415819999999999C25.928959999999996 0.8415819999999999 25.557378 1.213164 25.433626999999998 1.213164C23.946358999999998 1.9573150000000001 23.078974 0.5946440000000001 22.33534 0.47C22.211636 0.47 21.963758 0.717878 21.963758 0.8415819999999999C21.096373 1.461559 19.856983 1.461559 18.989597999999997 1.213164C18.741719999999997 1.0894599999999999 18.122259999999997 0.717878 17.874851999999997 0.717878C17.5028 0.717878 16.759119 2.081019 14.404936 1.3373849999999998C13.785006 2.452601 12.546038999999999 3.3204089999999997 11.306648999999998 3.5678639999999997C10.810892999999998 3.692038 10.315607 3.5678639999999997 9.943508 3.5678639999999997C9.200344 3.4441129999999998 9.571926 3.3199389999999998 9.324048 4.311498C8.704588 7.037733 6.4736389999999995 7.037733 6.102056999999999 7.409314999999999C5.978305999999999 7.533488999999999 6.4736389999999995 8.896629999999998 4.615212 9.763968C4.24363 9.888141999999998 3.9957519999999995 9.763968 4.738916 10.507178999999999C5.978353 11.870743000000001 5.730427999999999 12.49025 4.986794 13.853344C4.986794 13.977047999999998 4.86309 13.977047999999998 4.86309 14.101222C5.110968 14.224925999999998 5.482549999999999 13.853344 5.854132 14.101222C7.465151 14.844432999999999 5.730427999999999 17.446964 5.854132 17.818545999999998C5.978305999999999 17.94272 6.225760999999999 17.94272 6.349934999999999 18.066423999999998C6.5978129999999995 18.314301999999998 6.5978129999999995 19.057983 6.5978129999999995 19.305861C6.4741089999999994 17.570667999999998 6.5978129999999995 15.960119 7.217273 14.3491C8.085081 11.870273 8.952466 12.738128 9.6961 12.613954C9.819804 12.613954 9.6961 12.242325 9.819804 12.118621000000001C10.31556 11.127109 12.670212999999999 12.49025 13.661302 12.49025C13.785006 12.49025 14.652344 12.49025 14.652344 12.366029C14.776518 12.242325 14.280762 12.242325 14.157058 12.118621000000001C13.785476 11.870743000000001 12.917667999999999 11.374987 13.413424 10.879231C13.785006 10.507648999999999 14.652344 10.631353 15.148147 10.631353C16.139658999999998 10.631353 17.378626 10.13555 18.246434 10.259724C18.741719999999997 10.383475 18.989597999999997 10.631353 19.361227 10.755526999999999L19.485401 10.507648999999999C20.104861 9.392385999999998 21.964228 9.392385999999998 23.078974 11.250812999999999L23.203148 11.498690999999999C23.698480999999997 11.374987 23.574777 10.259724 24.317940999999998 10.755526999999999C25.433626999999998 11.374987 24.442114999999998 13.10971 24.689992999999998 14.101222C24.937870999999998 15.092310999999999 26.424715999999997 15.464363 26.920471999999997 16.331701C27.787809999999997 17.818545999999998 26.301012 20.173199 29.894585 21.660044C30.266213999999994 21.784218 30.266213999999994 22.1558 30.514091999999994 21.040536999999997C30.638265999999998 20.297372999999997 31.133552 18.686354 32.125064 19.305813999999998C32.620867 17.446964 34.479763999999996 15.340658999999999 36.586022 16.579579C37.453877 16.331701 36.710243 16.331701 37.205999 15.092310999999999Z" clip-rule="evenodd" stroke-width="1"></path><path fill="#000000" fill-rule="evenodd" d="M4.738916 13.481762C4.367334 13.977518 4.615212 14.3491 5.234672 14.3491C5.358846 14.3491 5.606254 14.224925999999998 5.730427999999999 14.224925999999998C6.4736389999999995 14.596508 6.102056999999999 15.712241 5.854178999999999 16.455875C5.482549999999999 17.323259999999998 5.110968 17.94272 6.225760999999999 18.190598C6.349934999999999 18.314301999999998 6.225760999999999 18.438476 6.349934999999999 19.182156999999997C6.349934999999999 19.677443 7.217273 19.677443 7.217273 19.182156999999997C7.217273 18.190598 7.093569 17.819015999999998 7.217273 16.703283C7.341447 15.216485 7.83725 13.853344 8.208832 13.357588C8.704588 12.366546 9.200344 12.986006 9.943555 12.862301999999998C10.067729 12.862301999999998 10.191433 12.738128 10.315136999999998 12.614424C10.315136999999998 12.49025 10.191433 12.118621000000001 10.315136999999998 12.242795C10.686719 11.622865000000001 13.28925 13.233884 14.776564999999998 12.738128C15.148147 12.614424 15.396025 12.366499 15.272321 12.118621000000001C15.148147 11.747039 14.776564999999998 11.870743000000001 14.528686999999998 11.747039C14.280808999999998 11.622865000000001 13.661302 11.251282999999999 13.90918 11.127109C14.157058 10.879231 15.023973 11.003404999999999 15.396025 11.003404999999999C16.387583999999997 11.003404999999999 17.626503999999997 10.507648999999999 18.493841999999997 10.631822999999999C18.865471 10.631822999999999 19.113819 11.003404999999999 19.485401 11.127109C19.981157 11.251282999999999 19.981157 10.631353 20.352739 10.383897999999999C20.972246 9.888141999999998 22.33534 10.012316 23.326899 11.746569C23.574777 12.118151 24.070062999999998 11.870743000000001 24.318411 11.374987C24.442114999999998 11.003404999999999 24.442114999999998 11.003404999999999 24.689992999999998 11.127109C25.557378 11.870273 24.689992999999998 13.10971 24.937917999999996 14.224925999999998C25.3095 15.712241 27.044223 15.588536999999999 27.416275 17.199086C27.664153 18.190598 27.168397 20.421077 29.646753999999998 21.660044L30.389918 22.032096L30.638265999999998 22.1558C31.38143 22.403678 31.009847999999995 20.668955 31.877232999999997 19.801617C32.248815 19.305861 32.496693 19.801617 32.744571 19.677443C32.992449 19.553739 33.240327 17.694842 34.85134599999999 16.827457C35.470806 16.455875 36.214487 16.455875 36.958121 16.951161H37.205999C37.329702999999995 17.075381999999998 37.577580999999995 16.951161 37.577580999999995 16.703753C37.329702999999995 15.712241 37.949209999999994 15.216485 37.949209999999994 14.844856C37.949209999999994 14.596978 37.701285 14.596978 37.453877 14.473274C36.586068999999995 13.481762 37.701285 12.986006 37.701285 12.118621000000001C37.701285 11.870743000000001 37.453877 11.747039 37.205999 11.747039C37.081824999999995 11.747039 36.958121 11.747039 36.586068999999995 11.251282999999999C36.090782999999995 10.507602 36.586068999999995 9.763968 36.586068999999995 8.896629999999998C36.710243 8.153419 36.090782999999995 8.525001 35.471275999999996 7.905070999999999C34.60346799999999 7.037733 34.60346799999999 5.1788359999999996 34.60346799999999 5.0551319999999995C34.35558999999999 4.311968 33.736129999999996 4.9314279999999995 32.620867 4.187747C31.133552 3.3204089999999997 30.885674 2.080972 30.761969999999994 1.9572679999999998C30.390387999999998 1.214104 30.018805999999998 2.205193 29.027247 2.081019C27.787857 2.081019 26.796768 0.966226 26.548419999999997 0.842052C25.681551999999996 0.346296 25.805256 1.2136339999999999 24.690039999999996 1.3378079999999999C23.450602999999997 1.461512 22.831143 0.09841799999999999 22.087932 0.594174C21.840054 0.717878 21.468002 1.461512 19.980686999999996 1.337338C18.618485999999997 1.214104 18.245963999999997 0.34676599999999996 17.5028 0.842522C17.131217999999997 1.0903999999999998 16.88287 1.462029 15.767606999999998 1.5857329999999998C14.776564999999998 1.5857329999999998 14.404466 1.214104 14.157058 1.5857329999999998C13.413424 2.825123 11.926109 3.940386 10.067682 3.5687569999999997C9.819804 3.5687569999999997 9.447752 3.3208789999999997 9.199874 3.6925079999999997C8.952466 4.06409 9.07617 4.311968 9.07617 4.684019999999999C8.580414 7.286080999999999 6.4736389999999995 7.038202999999999 5.978353 7.534428999999999C5.482549999999999 8.029761999999998 6.4736389999999995 8.8971 4.615212 9.764438C4.367334 9.888612 4.119456 9.888612 3.995282 10.136066999999999C3.7478739999999995 10.507648999999999 4.24316 10.879700999999999 4.491038 11.251753C5.730427999999999 11.871213 5.234672 12.366546 4.738916 13.482232ZM22.459514 0.593704C20.600617 2.452601 18.122259999999997 0.842052 17.874381999999997 0.842052C17.131217999999997 1.337338 16.387537 1.956845 14.528686999999998 1.5852629999999999C13.28925 3.4441129999999998 11.182945 4.06409 9.819804 3.692038C9.571926 5.426714 8.828292 6.418273 7.217273 7.161906999999999C6.226230999999999 7.533488999999999 6.5978129999999995 7.285610999999999 6.4741089999999994 7.905070999999999C6.349934999999999 8.896629999999998 5.730475 9.51609 4.86309 9.888141999999998C5.606254 10.755526999999999 6.226230999999999 11.499160999999999 5.854178999999999 12.614424C5.482549999999999 13.729169999999998 5.358846 13.10971 5.978353 13.481762C6.8456909999999995 13.853344 6.5978129999999995 14.3491 6.7215169999999995 13.977518C7.217273 12.738128 7.713028999999999 11.746569 8.952466 11.994447C9.571926 12.118621000000001 9.200344 11.994447 9.324048 11.746569C10.067212 10.383475 12.421911999999999 11.746569 13.28925 11.994447C12.669789999999999 11.499160999999999 12.669789999999999 11.003404999999999 13.041371999999999 10.507648999999999C13.537128 9.888141999999998 14.528686999999998 10.136019999999998 15.024442999999998 10.136019999999998C16.015484999999998 10.136019999999998 17.254922 9.640263999999998 18.246434 9.764438C18.618015999999997 9.764438 18.865941 10.011846 19.113819 10.136019999999998C19.733279 9.020334 21.592176 8.772926 22.95527 10.383428C23.326899 10.879231 23.202724999999997 10.755056999999999 23.326899 10.631353C23.698480999999997 9.763968 24.566289 10.136019999999998 24.813696999999998 10.631353C25.805256 11.994447 24.194236999999998 13.357588 25.433673999999996 14.472803999999998C26.301012 15.340658999999999 27.168349999999997 15.464363 27.416275 16.827457C27.664153 17.819015999999998 27.416275 18.810057999999998 28.035735 19.801617C28.655195 20.792658999999997 29.646753999999998 21.040536999999997 30.018335999999998 21.288414999999997C30.266213999999994 20.173668999999997 30.761969999999994 18.438005999999998 31.877232999999997 18.810057999999998C32.496693 16.703753 34.479763999999996 15.092780999999999 36.462365 16.083823C36.462365 15.464363 36.586068999999995 15.092780999999999 36.833946999999995 14.596978C35.34710199999999 13.481762 36.586068999999995 12.242325 36.710243 11.746569C36.586068999999995 11.746569 36.338660999999995 11.746569 36.214487 11.622865000000001C35.84285799999999 11.374987 35.471275999999996 10.879700999999999 35.34710199999999 10.383897999999999C35.222928 9.888141999999998 35.34710199999999 9.392385999999998 35.470806 8.896629999999998C35.59497999999999 8.277123 35.59497999999999 8.648751999999998 35.09922399999999 8.400873999999998C34.231885999999996 7.905070999999999 33.736129999999996 6.666150999999999 33.612379 5.674592C33.488204999999994 4.559846 33.736129999999996 5.1788359999999996 32.744571 4.9314279999999995C31.505603999999995 4.559846 30.514091999999994 3.5682869999999998 30.018335999999998 2.700479C29.646753999999998 2.081019 30.018335999999998 2.205193 29.398875999999998 2.452601C27.664153 3.0725309999999997 25.928959999999996 1.3378079999999999 25.681551999999996 1.2136339999999999C24.194236999999998 2.328897 22.955316999999997 0.717878 22.459514 0.594174ZM9.571456 11.994447C9.447752 11.994447 9.447752 12.118621000000001 9.447752 12.118621000000001C9.571926 12.118621000000001 9.571926 12.118621000000001 9.571926 11.994447Z" clip-rule="evenodd" stroke-width="1"></path></svg>