<svg viewBox="0 0 100 100" xmlns="http://www.w3.org/2000/svg" id="Xls-Spreadsheet-3--Streamline-Ux.svg" height="100" width="100"><desc>Xls Spreadsheet 3 Streamline Illustration: https://streamlinehq.com</desc><path d="M1.6049 50C1.6049 87.2545 41.9342 110.5386 74.1975 91.9114C89.171 83.2664 98.3951 67.2899 98.3951 50C98.3951 12.7455 58.0658 -10.5386 25.8025 8.0887C10.829 16.7336 1.6049 32.7101 1.6049 50Z" fill="#daedf7" stroke="#daedf7" stroke-width="1"></path><path d="M31.0207 89.4178C31.0207 91.273 47.4326 92.4326 60.5622 91.505C66.6557 91.0744 70.4094 90.2788 70.4094 89.4178C70.4094 87.5625 53.9974 86.403 40.8678 87.3306C34.7744 87.7611 31.0207 88.5567 31.0207 89.4178Z" fill="#45413c" opacity=".15" stroke-width="1"></path><path d="M27.5157 73.3506C27.5157 74.1772 28.1857 74.8472 29.0123 74.8472H72.4202C73.2468 74.8472 73.9168 74.1772 73.9168 73.3506V24.7051L61.1938 11.9821H29.0111C28.1845 11.9821 27.5144 12.6521 27.5144 13.4787Z" fill="#ffffff" stroke-width="1"></path><path d="M51.5958 47.256C51.5958 46.4842 50.9702 45.8586 50.1984 45.8586H27.5157V73.3506C27.5157 74.1772 28.1857 74.8472 29.0123 74.8472H51.5958Z" fill="#e0e0e0" stroke-width="1"></path><path d="M27.5157 73.3506C27.5157 74.1772 28.1857 74.8472 29.0123 74.8472H72.4202C73.2468 74.8472 73.9168 74.1772 73.9168 73.3506V24.7051L61.1938 11.9821H29.0111C28.1845 11.9821 27.5144 12.6521 27.5144 13.4787Z" fill="none" stroke="#45413c" stroke-linecap="round" stroke-linejoin="round" stroke-width="1"></path><path d="M73.9168 24.7051H62.5912C61.8205 24.7025 61.1964 24.0784 61.1938 23.3077V11.9821Z" fill="#ffffff" stroke="#45413c" stroke-linecap="round" stroke-linejoin="round" stroke-width="1"></path><path d="M66.6576 34.7217V30.0262C66.6576 29.2544 66.0319 28.6288 65.2602 28.6287H36.1723C35.4005 28.6287 34.7749 29.2544 34.7749 30.0262V34.7217Z" fill="#6dd627" stroke-width="1"></path><path d="M34.7749 28.6287H66.6576V46.9051H34.7749Z" fill="none" stroke="#45413c" stroke-linecap="round" stroke-linejoin="round" stroke-width="1"></path><path d="M45.4025 28.6287V46.9051" fill="none" stroke="#45413c" stroke-linecap="round" stroke-linejoin="round" stroke-width="1"></path><path d="M56.03 28.6287V46.9051" fill="none" stroke="#45413c" stroke-linecap="round" stroke-linejoin="round" stroke-width="1"></path><path d="M34.7749 34.7217H66.6576" fill="none" stroke="#45413c" stroke-linecap="round" stroke-linejoin="round" stroke-width="1"></path><path d="M34.7749 40.8134H66.6576" fill="none" stroke="#45413c" stroke-linecap="round" stroke-linejoin="round" stroke-width="1"></path><path d="M16.8494 50.0508H47.4036V80.605H16.8494Z" fill="#46b000" stroke="#45413c" stroke-linecap="round" stroke-linejoin="round" stroke-width="1"></path><path d="M41.1679 57.9852C41.4445 57.6471 41.2515 57.1364 40.8204 57.0659C40.7905 57.061 40.7602 57.0585 40.7299 57.0584H36.159C35.9841 57.0588 35.8191 57.1396 35.7114 57.2774L32.1265 61.8979L28.5416 57.2714C28.4342 57.1332 28.269 57.0524 28.094 57.0524H23.5291C23.0923 57.0523 22.8193 57.5252 23.0377 57.9035C23.053 57.9301 23.0705 57.9554 23.0899 57.9791L29.1067 65.3279L23.0899 72.6779C22.8133 73.016 23.0064 73.5267 23.4375 73.5972C23.4678 73.6022 23.4984 73.6047 23.5291 73.6047H28.094C28.2693 73.6047 28.4347 73.5234 28.5416 73.3845L32.1265 68.764L35.7114 73.3845C35.8186 73.5231 35.9838 73.6043 36.159 73.6047H40.7251C41.1619 73.6038 41.4339 73.1304 41.2147 72.7525C41.1995 72.7263 41.1823 72.7014 41.1631 72.6779L35.1463 65.3279Z" fill="#ffffff" stroke-width="1"></path></svg>