<svg xmlns="http://www.w3.org/2000/svg" fill="none" viewBox="0 0 100 100" id="Pdf-File-2--Streamline-Ux.svg" height="100" width="100"><desc>Pdf File 2 Streamline Illustration: https://streamlinehq.com</desc><path fill="#daedf7" stroke="#daedf7" stroke-miterlimit="10" d="M50 98.3951C76.7279 98.3951 98.3951 76.7279 98.3951 50S76.7279 1.6049 50 1.6049S1.6049 23.2721 1.6049 50S23.2721 98.3951 50 98.3951Z" stroke-width="1"></path><path fill="#45413c" d="M51.9866 86.7984C62.3457 86.7984 70.7433 85.7708 70.7433 84.5033C70.7433 83.2357 62.3457 82.2081 51.9866 82.2081C41.6275 82.2081 33.2299 83.2357 33.2299 84.5033C33.2299 85.7708 41.6275 86.7984 51.9866 86.7984Z" opacity=".15" stroke-width="1"></path><path fill="#ffffff" d="M29.8144 75.803C29.8143 75.9902 29.8511 76.1756 29.9226 76.3486C29.9942 76.5216 30.0991 76.6787 30.2315 76.8111C30.3639 76.9435 30.5211 77.0485 30.694 77.12C30.867 77.1916 31.0525 77.2284 31.2397 77.2281H72.5811C72.9591 77.2281 73.3217 77.078 73.589 76.8107C73.8562 76.5435 74.0064 76.181 74.0064 75.803V29.4719L61.8895 17.355H31.2397C31.052 17.3549 30.8663 17.3918 30.6929 17.4636C30.5197 17.5355 30.3623 17.641 30.2298 17.7739C30.0974 17.9067 29.9925 18.0645 29.9213 18.2381C29.8499 18.4116 29.8136 18.5975 29.8144 18.7851V75.803Z" stroke-width="1"></path><path fill="#e0e0e0" d="M57.6609 51.32V37.4572C57.6609 37.1042 57.5207 36.7656 57.2711 36.5161C57.0215 36.2666 56.683 36.1264 56.3301 36.1264H29.8144V52.6508H56.3301C56.683 52.6508 57.0215 52.5106 57.2711 52.261C57.5207 52.0114 57.6609 51.6729 57.6609 51.32Z" stroke-width="1"></path><path stroke="#45413c" stroke-linecap="round" stroke-linejoin="round" d="M29.8144 75.803C29.8143 75.9902 29.8511 76.1756 29.9226 76.3486C29.9942 76.5216 30.0991 76.6787 30.2315 76.8111C30.3639 76.9435 30.5211 77.0485 30.694 77.12C30.867 77.1916 31.0525 77.2284 31.2397 77.2281H72.5811C72.9591 77.2281 73.3217 77.078 73.589 76.8107C73.8562 76.5435 74.0064 76.181 74.0064 75.803V29.4719L61.8895 17.355H31.2397C31.052 17.3549 30.8663 17.3918 30.6929 17.4636C30.5197 17.5355 30.3623 17.641 30.2298 17.7739C30.0974 17.9067 29.9925 18.0645 29.9213 18.2381C29.8499 18.4116 29.8136 18.5975 29.8144 18.7851V75.803Z" stroke-width="1"></path><path fill="#ffffff" stroke="#45413c" stroke-linecap="round" stroke-linejoin="round" d="M74.0064 29.4719H63.2203C63.0455 29.4719 62.8725 29.4375 62.711 29.3706C62.5496 29.3037 62.4028 29.2057 62.2793 29.0822C62.1556 28.9586 62.0576 28.8119 61.9907 28.6504C61.9238 28.4889 61.8895 28.3159 61.8895 28.141V17.355L74.0064 29.4719Z" stroke-width="1"></path><path fill="#ff6242" stroke="#45413c" stroke-linecap="round" stroke-linejoin="round" d="M52.8045 30.3335H18.5989C17.7543 30.3335 17.0696 31.0181 17.0696 31.8627V47.7944C17.0696 48.639 17.7543 49.3237 18.5989 49.3237H52.8045C53.6491 49.3237 54.3338 48.639 54.3338 47.7944V31.8627C54.3338 31.0181 53.6491 30.3335 52.8045 30.3335Z" stroke-width="1"></path><path stroke="#ffffff" stroke-linecap="round" stroke-linejoin="round" d="M24.1776 44.6971V35.035S29.2264 34.2523 29.2264 37.7343S24.1776 40.4323 24.1776 40.4323" stroke-width="1"></path><path stroke="#ffffff" stroke-linecap="round" stroke-linejoin="round" d="M33.2299 44.6971V35.035S38.5401 35.035 38.5401 39.8661S33.2299 44.6971 33.2299 44.6971Z" stroke-width="1"></path><path stroke="#ffffff" stroke-linecap="round" stroke-linejoin="round" d="M42.9791 44.6971V35.035H47.2258" stroke-width="1"></path><path stroke="#ffffff" stroke-linecap="round" stroke-linejoin="round" d="M42.9791 39.8661H47.2258" stroke-width="1"></path></svg>